<svg width="74" height="73" viewBox="0 0 74 73" fill="none" xmlns="http://www.w3.org/2000/svg">
<path d="M15.371 18.4248C6.90748 28.5949 8.19393 43.7141 18.3067 52.13C26.6043 59.0354 38.4812 59.4249 47.3252 53.1222C48.0715 53.2802 49.5919 53.7736 50.5457 54.1042C54.0256 55.302 57.0285 56.3344 58.6225 54.419C60.2166 52.5036 58.6938 49.6925 56.9218 46.4425C56.4235 45.5646 55.6482 44.0703 55.4092 43.4083C59.8729 33.6146 57.2566 22.0973 49.0627 15.2783C38.936 6.77364 23.8346 8.25481 15.371 18.4248ZM50.4671 41.2252C49.5397 43.0779 50.8513 45.4045 52.4399 48.3475C52.689 48.7864 53.0558 49.4004 53.2809 49.9737C52.7142 49.8108 52.0957 49.6048 51.6188 49.4395C48.4742 48.3664 45.9481 47.4992 44.2947 48.7477C37.2597 53.9313 27.7736 53.8332 21.3429 48.4816C13.5639 42.0078 12.7781 30.0841 19.5717 21.9207C26.3654 13.7573 38.2335 12.3642 46.0125 18.838C52.3914 24.1465 54.2349 33.3225 50.4671 41.2252Z" fill="#E94560" fill-opacity="0.6"/>
</svg>
