<svg width="40" height="48" viewBox="0 0 40 48" fill="none" xmlns="http://www.w3.org/2000/svg">
<path d="M0 16C0 17.0609 0.383116 18.0783 1.06507 18.8284C1.74702 19.5786 2.67194 20 3.63636 20V40C3.63636 42.1217 4.40259 44.1566 5.7665 45.6569C7.1304 47.1571 8.98024 48 10.9091 48H29.0909C31.0198 48 32.8696 47.1571 34.2335 45.6569C35.5974 44.1566 36.3636 42.1217 36.3636 40V20C37.3281 20 38.253 19.5786 38.9349 18.8284C39.6169 18.0783 40 17.0609 40 16V12C40 10.9391 39.6169 9.92172 38.9349 9.17157C38.253 8.42143 37.3281 8 36.3636 8H29.0909V4C29.0909 2.93913 28.7078 1.92172 28.0258 1.17157C27.3439 0.421427 26.419 0 25.4545 0H14.5455C13.581 0 12.6561 0.421427 11.9742 1.17157C11.2922 1.92172 10.9091 2.93913 10.9091 4V8H3.63636C2.67194 8 1.74702 8.42143 1.06507 9.17157C0.383116 9.92172 0 10.9391 0 12V16ZM32.7273 40C32.7273 41.0609 32.3442 42.0783 31.6622 42.8284C30.9803 43.5786 30.0553 44 29.0909 44H10.9091C9.94467 44 9.01974 43.5786 8.33779 42.8284C7.65584 42.0783 7.27273 41.0609 7.27273 40V20H32.7273V40ZM14.5455 4H25.4545V8H14.5455V4ZM3.63636 12H36.3636V16H3.63636V12Z" fill="#E94560" fill-opacity="0.6"/>
</svg>
