<svg width="46" height="48" viewBox="0 0 46 48" fill="none" xmlns="http://www.w3.org/2000/svg">
<path d="M21.5995 0.310698L0.622767 16.0435C0.235274 16.3373 -0.00249742 16.8191 1.97903e-05 17.3054V45.6243C0.000124674 46.4481 0.749518 47.1975 1.57327 47.1976H15.7326C16.5563 47.1975 17.3057 46.4481 17.3058 45.6243V37.7581C17.3058 34.8256 19.6175 32.5138 22.55 32.5138C25.4825 32.5138 27.7942 34.8256 27.7942 37.7581V45.6243C27.7943 46.4481 28.5437 47.1975 29.3674 47.1976H43.5267C44.3505 47.1975 45.0999 46.4481 45.1 45.6243V17.3054C45.1 16.8191 44.8647 16.3373 44.4772 16.0435L23.5005 0.310698C22.8136 -0.125524 22.2408 -0.081011 21.5995 0.310698ZM22.55 3.53918L41.9535 18.092V44.0511H30.9407V37.7581C30.9407 33.1368 27.1712 29.3673 22.55 29.3673C17.9288 29.3673 14.1593 33.1368 14.1593 37.7581V44.0511H3.14653V18.092L22.55 3.53918Z" fill="#E94560" fill-opacity="0.6"/>
</svg>
