<svg width="48" height="48" viewBox="0 0 48 48" fill="none" xmlns="http://www.w3.org/2000/svg">
<path d="M44.1622 4.8772C41.696 1.76132 38.3573 0.0119201 34.8769 0.0119201C31.3964 0.0119201 28.0577 1.76132 25.5915 4.8772L23.9987 6.89799L22.4059 4.8772C21.1871 3.33094 19.7402 2.10437 18.1478 1.26754C16.5554 0.430712 14.8487 1.62925e-08 13.1251 0C11.4015 -1.62925e-08 9.69473 0.430712 8.10232 1.26754C6.50991 2.10437 5.06302 3.33094 3.84424 4.8772C2.62547 6.42346 1.65868 8.25914 0.999086 10.2794C0.33949 12.2997 -1.28419e-08 14.465 0 16.6518C1.28419e-08 18.8385 0.33949 21.0039 0.999086 23.0242C1.65868 25.0444 2.62547 26.8801 3.84424 28.4264L6.08865 31.2624C6.11045 31.2958 6.1347 31.3266 6.16106 31.3542L21.7543 46.9925C22.3963 47.6447 23.1943 48 24.0168 48C24.8393 48 25.6373 47.6447 26.2793 46.9925L41.8363 31.3542L41.9178 31.2624L44.1622 28.4264C46.6198 25.301 48 21.0665 48 16.6518C48 12.2371 46.6198 8.00258 44.1622 4.8772ZM42.8861 26.796L40.6779 29.5861L25.1209 45.1898C24.8014 45.5102 24.406 45.6845 23.9987 45.6845C23.5914 45.6845 23.196 45.5102 22.8765 45.1898L7.32851 29.5861L5.1203 26.8074C2.9925 24.1155 1.79474 20.4615 1.79049 16.6491C1.78625 12.8368 2.97588 9.17845 5.09767 6.47891C7.21947 3.77937 10.0996 2.25976 13.1045 2.25438C16.1095 2.249 18.993 3.75828 21.1208 6.45021L23.3561 9.28621C23.4403 9.39383 23.5404 9.47925 23.6507 9.53754C23.7609 9.59583 23.8792 9.62584 23.9987 9.62584C24.1182 9.62584 24.2365 9.59583 24.3467 9.53754C24.457 9.47925 24.5571 9.39383 24.6413 9.28621L26.8766 6.45021C29.0032 3.75676 31.8861 2.24541 34.891 2.24864C37.8959 2.25187 40.7767 3.76941 42.8997 6.46743C45.0227 9.16544 46.214 12.8229 46.2114 16.6353C46.2089 20.4476 45.0127 24.1025 42.8861 26.796Z" fill="#E94560" fill-opacity="0.6"/>
</svg>
