<svg width="412" height="110" viewBox="0 0 412 110" fill="none" xmlns="http://www.w3.org/2000/svg">
<path d="M183.25 81.8276C183.824 75.3247 184.111 66.718 184.111 56.0074C184.111 45.2331 183.792 37.3276 183.154 32.2911L179.425 32.0042C179.234 31.2392 179.138 30.251 179.138 29.0397C179.138 27.8284 179.17 27.0314 179.234 26.6489C183.314 26.5852 186.948 26.2983 190.135 25.7882C193.323 25.2782 196.702 25.0232 200.272 25.0232C206.711 25.0232 211.589 26.5214 214.904 29.5178C218.283 32.4505 219.972 36.9132 219.972 42.9061C219.972 48.8989 217.932 53.4254 213.852 56.4856C220.673 59.227 224.084 64.1041 224.084 71.117C224.084 77.0461 222.235 81.5407 218.538 84.6009C214.84 87.5973 209.389 89.0955 202.185 89.0955C198.168 89.0955 194.439 88.8405 190.996 88.3304C184.94 87.8842 181.019 87.5973 179.234 87.4698C179.17 87.0872 179.138 86.3222 179.138 85.1746C179.138 84.0271 179.234 83.007 179.425 82.1145L183.25 81.8276ZM196.83 52.0866C198.232 53.0429 200.272 53.521 202.95 53.521C205.691 53.521 207.827 52.6285 209.357 50.8434C210.887 48.9945 211.652 46.2531 211.652 42.6192C211.652 38.9215 210.632 35.9888 208.592 33.8212C206.552 31.5898 203.651 30.4741 199.89 30.4741C197.531 30.4741 194.917 31.0479 192.048 32.1955C191.538 37.487 191.283 45.2012 191.283 55.338C191.283 65.4748 191.538 73.7946 192.048 80.2975C195.81 81.7638 199.22 82.497 202.281 82.497C211.27 82.497 215.764 78.7037 215.764 71.117C215.764 64.7416 212.8 60.8527 206.871 59.4501C204.958 59.7689 203.077 59.9282 201.229 59.9282C199.443 59.9282 197.308 59.4501 194.821 58.4938C194.821 55.5611 195.491 53.4254 196.83 52.0866Z" fill="#E94560" fill-opacity="0.6"/>
<path d="M250.688 66.4311C247.564 66.4311 244.663 66.2717 241.986 65.953C242.113 76.7911 245.715 82.2101 252.792 82.2101C256.362 82.2101 260.315 80.2337 264.65 76.281C266.499 78.1936 267.678 80.7119 268.188 83.8358C262.961 87.3423 257.414 89.0955 251.549 89.0955C245.683 89.0955 241.316 87.0872 238.447 83.0708C235.579 78.9905 234.144 73.0296 234.144 65.1879C234.144 57.3462 235.738 51.5128 238.926 47.6876C242.177 43.8624 246.767 41.9498 252.696 41.9498C257.095 41.9498 260.729 43.2886 263.598 45.9662C266.467 48.6439 267.902 51.9272 267.902 55.8161C267.965 59.7051 267.647 62.4784 266.945 64.136C262.164 65.6661 256.745 66.4311 250.688 66.4311ZM252.027 47.3051C246.098 47.3051 242.783 51.6722 242.081 60.4064C244.95 60.7252 248.106 60.8846 251.549 60.8846C254.991 60.8846 257.669 60.5658 259.582 59.9282C259.837 58.3344 259.964 57.155 259.964 56.3899C259.964 53.5848 259.231 51.3853 257.765 49.7914C256.362 48.1338 254.45 47.3051 252.027 47.3051Z" fill="#E94560" fill-opacity="0.6"/>
<path d="M294.121 41.9498C298.583 41.9498 302.122 43.0017 304.736 45.1056C307.413 47.2094 308.752 49.9508 308.752 53.3298C308.752 56.6449 307.254 58.3025 304.258 58.3025C302.472 58.3025 301.07 57.7606 300.05 56.6768C299.093 55.5293 298.615 54.1904 298.615 52.6603C298.615 51.1303 298.87 49.8552 299.38 48.8351C297.85 47.6238 296.033 47.0182 293.929 47.0182C291.826 47.0182 290.072 47.5282 288.67 48.5482C287.331 49.5683 286.662 51.0665 286.662 53.0429C286.662 55.0192 287.427 56.7406 288.957 58.2069C290.551 59.6732 292.463 60.8846 294.694 61.8409C296.926 62.7334 299.157 63.6897 301.389 64.7098C303.62 65.6661 305.501 67.0686 307.031 68.9175C308.625 70.7026 309.422 72.934 309.422 75.6116C309.422 79.7556 308.019 83.0389 305.214 85.4615C302.472 87.8842 298.711 89.0955 293.929 89.0955C289.148 89.0955 285.227 88.0754 282.167 86.0353C279.17 83.9952 277.672 81.3176 277.672 78.0024V77.6198C277.672 74.1772 279.17 72.4558 282.167 72.4558C283.952 72.4558 285.323 73.0296 286.279 74.1772C287.299 75.261 287.809 76.536 287.809 78.0024C287.809 79.4687 287.65 80.6163 287.331 81.4451C288.606 82.2739 290.614 82.6883 293.356 82.6883C296.161 82.6883 298.265 82.2101 299.667 81.2538C301.134 80.2975 301.867 78.9905 301.867 77.333C301.867 75.6116 301.07 74.0815 299.476 72.7427C297.946 71.4039 296.065 70.2882 293.834 69.3956C291.602 68.4393 289.371 67.4512 287.14 66.4311C284.908 65.3473 282.996 63.8172 281.402 61.8409C279.872 59.8645 279.107 57.5056 279.107 54.7642C279.107 50.8115 280.477 47.6876 283.219 45.3924C286.024 43.0973 289.658 41.9498 294.121 41.9498Z" fill="#E94560" fill-opacity="0.6"/>
<path d="M322.554 72.1689C322.554 72.1689 322.617 65.0604 322.745 50.8434C322.745 49.8871 322.713 49.1539 322.649 48.6439C319.971 48.6439 318.059 48.6758 316.911 48.7395C316.529 47.7195 316.338 46.7313 316.338 45.775C316.338 44.7549 316.401 43.9899 316.529 43.4798H322.362L321.884 36.4032C323.478 35.8932 325.136 35.6382 326.857 35.6382C328.642 35.6382 330.108 35.7657 331.256 36.0207L330.395 43.3842C333.902 43.3205 337.44 43.1292 341.01 42.8104C341.393 43.6392 341.584 44.5636 341.584 45.5837C341.584 46.54 341.456 47.7194 341.201 49.122C338.843 48.9945 335.113 48.867 330.013 48.7395C329.885 50.0146 329.821 51.8953 329.821 54.3817V73.7946C329.821 75.4522 329.885 76.8229 330.013 77.9067C330.204 78.9268 330.618 79.8831 331.256 80.7756C331.957 81.6044 332.945 82.0188 334.22 82.0188C337.026 82.0188 339.703 81.0307 342.253 79.0543C343.592 80.9669 344.262 83.5489 344.262 86.8004C340.755 88.3304 337.695 89.0955 335.081 89.0955C332.531 89.0955 330.491 88.7448 328.961 88.0435C327.431 87.406 326.251 86.641 325.422 85.7484C324.594 84.7921 323.956 83.4852 323.51 81.8276C322.872 79.4687 322.554 76.2491 322.554 72.1689Z" fill="#E94560" fill-opacity="0.6"/>
<path d="M355.32 82.1145C355.894 75.8666 356.181 70.1607 356.181 64.9967C356.181 59.7689 355.926 54.3498 355.416 48.7395L351.878 48.4526C351.686 47.3688 351.591 46.3487 351.591 45.3924C351.591 44.3724 351.623 43.6073 351.686 43.0973C355.384 42.9698 359.337 42.6829 363.545 42.2366L364.023 42.7148C363.449 46.4763 363.162 52.7879 363.162 61.6496C363.162 70.5113 363.449 77.333 364.023 82.1145L367.561 82.4014C367.689 83.4214 367.752 84.314 367.752 85.079C367.752 85.7803 367.657 86.6728 367.465 87.7567C365.234 87.6929 362.652 87.661 359.719 87.661C356.787 87.661 354.237 87.6929 352.069 87.7567C351.878 86.8004 351.782 85.8122 351.782 84.7921C351.782 83.7721 351.846 82.9751 351.973 82.4014L355.32 82.1145ZM364.979 29.0397C364.979 32.9924 362.939 34.9687 358.859 34.9687C355.671 34.9687 354.077 33.343 354.077 30.0916C354.077 26.0751 356.117 24.0669 360.197 24.0669C363.385 24.0669 364.979 25.7245 364.979 29.0397Z" fill="#E94560" fill-opacity="0.6"/>
<path d="M394.5 66.4311C391.376 66.4311 388.475 66.2717 385.797 65.953C385.925 76.7911 389.527 82.2101 396.603 82.2101C400.174 82.2101 404.126 80.2337 408.462 76.281C410.31 78.1936 411.49 80.7119 412 83.8358C406.772 87.3423 401.226 89.0955 395.36 89.0955C389.495 89.0955 385.128 87.0872 382.259 83.0708C379.39 78.9905 377.956 73.0296 377.956 65.1879C377.956 57.3462 379.549 51.5128 382.737 47.6876C385.989 43.8624 390.579 41.9498 396.508 41.9498C400.907 41.9498 404.541 43.2886 407.41 45.9662C410.279 48.6439 411.713 51.9272 411.713 55.8161C411.777 59.7051 411.458 62.4784 410.757 64.136C405.975 65.6661 400.556 66.4311 394.5 66.4311ZM395.838 47.3051C389.909 47.3051 386.594 51.6722 385.893 60.4064C388.762 60.7252 391.918 60.8846 395.36 60.8846C398.803 60.8846 401.481 60.5658 403.393 59.9282C403.648 58.3344 403.776 57.155 403.776 56.3899C403.776 53.5848 403.043 51.3853 401.576 49.7914C400.174 48.1338 398.261 47.3051 395.838 47.3051Z" fill="#E94560" fill-opacity="0.6"/>
<path d="M2.1426 30.5297H7.95103V35.4987C7.97942 38.391 8.57353 41.2483 9.69839 43.9024C10.8233 46.5565 12.4562 48.9537 14.501 50.9531C16.4094 52.8591 18.6619 54.3679 21.1333 55.3957V64.3861C16.5701 65.8677 12.5833 68.7888 9.74505 72.7304C6.9068 76.6719 5.363 81.4313 5.33518 86.3254V107.38C5.33518 107.939 5.55219 108.474 5.93846 108.869C6.32473 109.264 6.84863 109.486 7.39491 109.486C7.94118 109.486 8.46508 109.264 8.85135 108.869C9.23763 108.474 9.45463 107.939 9.45463 107.38V86.3254C9.47156 82.0893 10.8765 77.9812 13.4452 74.657C16.0139 71.3328 19.5981 68.9844 23.6256 67.9865C24.0787 67.8672 24.4786 67.5936 24.7594 67.2109C25.0402 66.8282 25.1852 66.3592 25.1704 65.881V56.5537C26.2385 56.7431 27.3201 56.8417 28.4041 56.8485H28.9191C29.7678 56.8173 30.6139 56.7329 31.4525 56.5958V65.9653C31.4377 66.4434 31.5826 66.9124 31.8634 67.2951C32.1442 67.6778 32.5441 67.9514 32.9973 68.0708C37.0302 69.0448 40.6275 71.3721 43.2149 74.681C45.8022 77.9899 47.2303 82.0896 47.2712 86.3254V107.38C47.2712 107.939 47.4882 108.474 47.8745 108.869C48.2608 109.264 48.7847 109.486 49.3309 109.486C49.8772 109.486 50.4011 109.264 50.7874 108.869C51.1737 108.474 51.3907 107.939 51.3907 107.38V86.3254C51.3894 83.4407 50.8512 80.5825 49.8047 77.9034H68.3422V107.38C68.3422 107.939 68.5592 108.474 68.9455 108.869C69.3318 109.264 69.8557 109.486 70.402 109.486C70.9482 109.486 71.4721 109.264 71.8584 108.869C72.2447 108.474 72.4617 107.939 72.4617 107.38V75.7979C72.4617 75.2395 72.2447 74.704 71.8584 74.3091C71.4721 73.9143 70.9482 73.6924 70.402 73.6924H47.745C46.1025 71.1997 44.0043 69.0549 41.5658 67.3759H86.0353C86.5816 67.3759 87.1055 67.1541 87.4917 66.7593C87.878 66.3644 88.095 65.8289 88.095 65.2704V56.5537C89.1631 56.7431 90.2447 56.8417 91.3288 56.8485H91.9261C92.7748 56.8173 93.6209 56.7329 94.4596 56.5958V65.9653C94.4448 66.4434 94.5897 66.9124 94.8705 67.2951C95.1513 67.6778 95.5512 67.9514 96.0044 68.0708C100.018 69.0651 103.592 71.4011 106.159 74.7081C108.727 78.0151 110.14 82.1038 110.175 86.3254V107.38C110.175 107.939 110.392 108.474 110.779 108.869C111.165 109.264 111.689 109.486 112.235 109.486C112.781 109.486 113.305 109.264 113.691 108.869C114.078 108.474 114.295 107.939 114.295 107.38V86.3254C114.275 81.4355 112.743 76.6774 109.916 72.7325C107.089 68.7877 103.113 65.8587 98.5584 64.3651V55.4799C101.217 54.4585 103.637 52.8808 105.664 50.8478C107.565 48.9603 109.075 46.7016 110.104 44.2059C111.134 41.7102 111.662 39.0284 111.658 36.3198V29.477C113.562 28.6376 115.233 27.3281 116.519 25.666C117.832 23.9702 118.751 21.992 119.208 19.8804C119.665 17.7687 119.647 15.5787 119.156 13.4752C118.844 12.0177 118.233 10.6444 117.363 9.44658C116.493 8.24871 115.384 7.25354 114.109 6.52705C112.227 5.46679 110.04 5.11652 107.93 5.53746C104.321 1.98923 99.5086 0.00507904 94.5008 0H85.7057C81.4168 0.105636 77.2714 1.59973 73.8661 4.2672C70.4608 6.93466 67.9714 10.6379 66.7562 14.8438L63.0899 27.8347C62.9981 28.1554 62.9823 28.4939 63.0438 28.8221C63.1053 29.1503 63.2424 29.4588 63.4437 29.7222C63.6449 29.9855 63.9046 30.1961 64.2013 30.3365C64.4979 30.4769 64.823 30.5432 65.1497 30.5297H70.9581V35.4987C70.9624 38.3776 71.5273 41.2268 72.6201 43.8801C73.7128 46.5335 75.3114 48.9378 77.3226 50.9531C79.2372 52.8613 81.4968 54.3703 83.9756 55.3957V63.1649H35.6544V55.4799C38.3198 54.4606 40.7473 52.8828 42.781 50.8478C44.6804 48.9595 46.1896 46.7007 47.2192 44.2052C48.2488 41.7096 48.7778 39.0282 48.7748 36.3198V29.477C50.6721 28.6555 52.3417 27.3682 53.6358 25.7292C54.9486 24.0333 55.868 22.0551 56.3247 19.9435C56.7813 17.8319 56.7634 15.6419 56.2722 13.5384C55.9607 12.0808 55.3498 10.7076 54.4798 9.50974C53.6098 8.31187 52.5006 7.31671 51.2259 6.59021C49.3434 5.52996 47.1562 5.17969 45.0467 5.60063C41.4417 2.02426 36.6203 0.0165979 31.5967 0H22.7399C18.4501 0.102404 14.3031 1.59528 10.8973 4.26322C7.49137 6.93117 5.00272 10.6362 3.79039 14.8438L0.0828765 27.8347C-0.00892399 28.1554 -0.0247223 28.4939 0.0367879 28.8221C0.0982981 29.1503 0.23535 29.4588 0.436612 29.7222C0.637874 29.9855 0.897566 30.1961 1.19422 30.3365C1.49087 30.4769 1.81595 30.5432 2.1426 30.5297ZM70.6903 16.086C71.643 12.7378 73.6096 9.78449 76.3076 7.65077C79.0056 5.51704 82.296 4.31274 85.7057 4.211H94.5214C96.6394 4.22628 98.7308 4.69508 100.661 5.5872C102.591 6.47931 104.316 7.77493 105.726 9.39052C106.003 9.69635 106.361 9.91159 106.757 10.009C107.153 10.1065 107.569 10.0817 107.951 9.93795C108.622 9.69637 109.336 9.60153 110.045 9.65956C110.755 9.71759 111.445 9.9272 112.07 10.2748C112.836 10.7175 113.5 11.3222 114.019 12.0484C114.537 12.7746 114.898 13.6056 115.077 14.4858C115.444 15.9705 115.481 17.5203 115.185 19.0214C114.889 20.5225 114.268 21.9368 113.368 23.1605C112.629 24.1553 111.676 24.9632 110.584 25.5218C109.491 26.0804 108.287 26.3746 107.065 26.3819H94.9951L90.3607 19.4127C90.203 19.1465 89.9894 18.9193 89.7355 18.7476C89.4816 18.5759 89.1935 18.4638 88.8922 18.4195C88.5908 18.3752 88.2835 18.3998 87.9925 18.4914C87.7016 18.583 87.4341 18.7395 87.2093 18.9495L79.9385 26.3187H67.7861L70.6903 16.086ZM74.9745 35.4987V30.5297H80.783C81.3233 30.5274 81.8411 30.3081 82.2248 29.9191L88.404 23.7921L92.2557 29.6033C92.4446 29.889 92.6993 30.123 92.9974 30.2845C93.2955 30.446 93.6278 30.5302 93.9652 30.5297H107.086H107.621V36.362C107.623 38.5095 107.202 40.6354 106.385 42.6137C105.568 44.5921 104.37 46.3825 102.863 47.879C99.8873 50.8348 95.93 52.5341 91.7819 52.6375C89.6376 52.6926 87.5046 52.3032 85.5116 51.4926C83.5185 50.682 81.7068 49.4671 80.1857 47.9211C78.5528 46.3087 77.2508 44.3795 76.356 42.2465C75.4613 40.1135 74.9916 37.8195 74.9745 35.4987V35.4987ZM44.6348 36.3198C44.6361 38.4674 44.2157 40.5933 43.3984 42.5716C42.5811 44.5499 41.3835 46.3404 39.8768 47.8369C36.9384 50.779 33.0297 52.4914 28.9191 52.6375C26.7749 52.6914 24.6422 52.3014 22.6493 51.4909C20.6565 50.6804 18.8446 49.4661 17.3228 47.9211C15.6899 46.3087 14.388 44.3795 13.4932 42.2465C12.5984 40.1135 12.1287 37.8195 12.1117 35.4987V30.5297H27.2301C27.5378 30.5308 27.8418 30.4614 28.1198 30.3266C28.3979 30.1917 28.6428 29.995 28.8367 29.7507L35.9839 20.697L39.8768 29.3085C40.0423 29.674 40.3068 29.9833 40.639 30.1998C40.9712 30.4162 41.3572 30.5307 41.7512 30.5297H44.161H44.7172L44.6348 36.3198ZM7.76566 16.086C8.7161 12.7444 10.6766 9.79598 13.3664 7.6629C16.0562 5.52982 19.3373 4.32151 22.7399 4.211H31.5967C33.7147 4.22628 35.8061 4.69508 37.736 5.5872C39.6659 6.47931 41.3915 7.77493 42.8016 9.39052C43.0779 9.69635 43.4367 9.91159 43.8327 10.009C44.2286 10.1065 44.6439 10.0817 45.0261 9.93795C45.6976 9.69637 46.4112 9.60153 47.1208 9.65956C47.8304 9.71759 48.5202 9.9272 49.1456 10.2748C49.9111 10.7175 50.5754 11.3222 51.094 12.0484C51.6126 12.7746 51.9736 13.6056 52.1528 14.4858C52.4959 15.9734 52.5094 17.5206 52.1922 19.0142C51.875 20.5078 51.2352 21.9101 50.3196 23.1184C49.5808 24.1132 48.6282 24.9211 47.5354 25.4797C46.4425 26.0383 45.2387 26.3325 44.0169 26.3398H42.9252L38.2084 15.8123C38.0624 15.4853 37.8368 15.202 37.5533 14.9893C37.2698 14.7766 36.9377 14.6417 36.5888 14.5974C36.2398 14.5531 35.8855 14.6008 35.5597 14.7361C35.2339 14.8713 34.9474 15.0896 34.7275 15.3701L26.2002 26.3187H4.88204L7.76566 16.086Z" fill="#E94560" fill-opacity="0.6"/>
</svg>
