<svg width="48" height="48" viewBox="0 0 48 48" fill="none" xmlns="http://www.w3.org/2000/svg">
<path d="M35.4695 21.8779H26.1727V12.5811C26.1727 11.419 25.2127 10.459 24.0506 10.459C22.8885 10.459 21.9285 11.419 21.9285 12.5811V21.8779H12.6316C11.4695 21.8779 10.5095 22.8379 10.5095 24C10.5095 24.6064 10.7622 25.1116 11.1158 25.5158C11.52 25.92 12.0253 26.1221 12.6316 26.1221H21.9285V35.419C21.9285 36.0253 22.1811 36.5306 22.5348 36.9348C22.8885 37.339 23.4443 37.5411 24.0506 37.5411C25.2127 37.5411 26.1727 36.5811 26.1727 35.419V26.1221H35.4695C36.6316 26.1221 37.5916 25.1621 37.5916 24C37.5916 22.8379 36.6316 21.8779 35.4695 21.8779Z" fill="#E94560" fill-opacity="0.6"/>
<path d="M33.6 0H14.4C6.46737 0 0 6.46737 0 14.4V33.6C0 41.5326 6.46737 48 14.4 48H33.6C41.5326 48 48 41.5326 48 33.6V14.4C48 6.46737 41.5326 0 33.6 0ZM43.7053 33.6C43.7053 39.1579 39.1579 43.7053 33.6 43.7053H14.4C8.8421 43.7053 4.29474 39.1579 4.29474 33.6V14.4C4.29474 8.8421 8.8421 4.29474 14.4 4.29474H33.6C39.1579 4.29474 43.7053 8.8421 43.7053 14.4V33.6Z" fill="#E94560" fill-opacity="0.6"/>
</svg>
